STARTFONT 2.1
FONT Inline2
SIZE 8 75 75
FONTBOUNDINGBOX 8 8 0 -1
STARTPROPERTIES 3
FONT_DESCENT 1
FONT_ASCENT 7
DEFAULT_CHAR 255
ENDPROPERTIES
CHARS 266
STARTCHAR U+0020
ENCODING 32
SWIDTH 666 0
DWIDTH 8 0
BBX 8 8 0 -1
BITMAP
00
00
00
00
00
00
00
00
ENDCHAR
STARTCHAR U+0021
ENCODING 33
SWIDTH 666 0
DWIDTH 8 0
BBX 8 8 0 -1
BITMAP
1c
14
14
14
1c
00
1c
00
ENDCHAR
STARTCHAR U+0022
ENCODING 34
SWIDTH 666 0
DWIDTH 8 0
BBX 8 8 0 -1
BITMAP
12
12
12
00
00
00
00
00
ENDCHAR
STARTCHAR U+0023
ENCODING 35
SWIDTH 666 0
DWIDTH 8 0
BBX 8 8 0 -1
BITMAP
3a
2a
6f
2a
6f
2a
3a
00
ENDCHAR
STARTCHAR U+0024
ENCODING 36
SWIDTH 666 0
DWIDTH 8 0
BBX 8 8 0 -1
BITMAP
04
3f
74
3e
05
3e
04
04
ENDCHAR
STARTCHAR U+0025
ENCODING 37
SWIDTH 666 0
DWIDTH 8 0
BBX 8 8 0 -1
BITMAP
72
72
04
08
10
22
42
00
ENDCHAR
STARTCHAR U+0026
ENCODING 38
SWIDTH 666 0
DWIDTH 8 0
BBX 8 8 0 -1
BITMAP
10
28
68
30
6a
c4
7a
00
ENDCHAR
STARTCHAR U+0027
ENCODING 39
SWIDTH 666 0
DWIDTH 8 0
BBX 8 8 0 -1
BITMAP
1c
0c
04
00
00
00
00
00
ENDCHAR
STARTCHAR U+0028
ENCODING 40
SWIDTH 666 0
DWIDTH 8 0
BBX 8 8 0 -1
BITMAP
3c
50
50
50
50
50
3c
00
ENDCHAR
STARTCHAR U+0029
ENCODING 41
SWIDTH 666 0
DWIDTH 8 0
BBX 8 8 0 -1
BITMAP
3c
0a
0a
0a
0a
0a
3c
00
ENDCHAR
STARTCHAR U+002a
ENCODING 42
SWIDTH 666 0
DWIDTH 8 0
BBX 8 8 0 -1
BITMAP
00
1c
55
36
55
1c
00
00
ENDCHAR
STARTCHAR U+002b
ENCODING 43
SWIDTH 666 0
DWIDTH 8 0
BBX 8 8 0 -1
BITMAP
00
1c
14
77
14
1c
00
00
ENDCHAR
STARTCHAR U+002c
ENCODING 44
SWIDTH 666 0
DWIDTH 8 0
BBX 8 8 0 -1
BITMAP
00
00
00
00
00
1c
04
18
ENDCHAR
STARTCHAR U+002d
ENCODING 45
SWIDTH 666 0
DWIDTH 8 0
BBX 8 8 0 -1
BITMAP
00
00
00
00
3e
00
00
00
ENDCHAR
STARTCHAR U+002e
ENCODING 46
SWIDTH 666 0
DWIDTH 8 0
BBX 8 8 0 -1
BITMAP
00
00
00
00
00
1c
1c
00
ENDCHAR
STARTCHAR U+002f
ENCODING 47
SWIDTH 666 0
DWIDTH 8 0
BBX 8 8 0 -1
BITMAP
00
0e
14
28
50
e0
00
00
ENDCHAR
STARTCHAR U+0030
ENCODING 48
SWIDTH 666 0
DWIDTH 8 0
BBX 8 8 0 -1
BITMAP
3c
52
52
56
5a
52
3c
00
ENDCHAR
STARTCHAR U+0031
ENCODING 49
SWIDTH 666 0
DWIDTH 8 0
BBX 8 8 0 -1
BITMAP
1c
74
14
14
14
14
7e
00
ENDCHAR
STARTCHAR U+0032
ENCODING 50
SWIDTH 666 0
DWIDTH 8 0
BBX 8 8 0 -1
BITMAP
3c
46
0a
14
28
52
7e
00
ENDCHAR
STARTCHAR U+0033
ENCODING 51
SWIDTH 666 0
DWIDTH 8 0
BBX 8 8 0 -1
BITMAP
3c
6a
0a
3c
0a
6a
3c
00
ENDCHAR
STARTCHAR U+0034
ENCODING 52
SWIDTH 666 0
DWIDTH 8 0
BBX 8 8 0 -1
BITMAP
70
50
54
54
7e
04
04
00
ENDCHAR
STARTCHAR U+0035
ENCODING 53
SWIDTH 666 0
DWIDTH 8 0
BBX 8 8 0 -1
BITMAP
7e
50
7c
02
02
72
3c
00
ENDCHAR
STARTCHAR U+0036
ENCODING 54
SWIDTH 666 0
DWIDTH 8 0
BBX 8 8 0 -1
BITMAP
3c
52
50
5c
52
52
3c
00
ENDCHAR
STARTCHAR U+0037
ENCODING 55
SWIDTH 666 0
DWIDTH 8 0
BBX 8 8 0 -1
BITMAP
7e
06
0c
14
14
14
1c
00
ENDCHAR
STARTCHAR U+0038
ENCODING 56
SWIDTH 666 0
DWIDTH 8 0
BBX 8 8 0 -1
BITMAP
3c
52
52
3c
52
52
3c
00
ENDCHAR
STARTCHAR U+0039
ENCODING 57
SWIDTH 666 0
DWIDTH 8 0
BBX 8 8 0 -1
BITMAP
3c
52
52
3e
02
72
3c
00
ENDCHAR
STARTCHAR U+003a
ENCODING 58
SWIDTH 666 0
DWIDTH 8 0
BBX 8 8 0 -1
BITMAP
00
00
00
08
00
08
00
00
ENDCHAR
STARTCHAR U+003b
ENCODING 59
SWIDTH 666 0
DWIDTH 8 0
BBX 8 8 0 -1
BITMAP
00
00
10
00
00
10
10
20
ENDCHAR
STARTCHAR U+003c
ENCODING 60
SWIDTH 666 0
DWIDTH 8 0
BBX 8 8 0 -1
BITMAP
00
0e
1c
38
1c
0e
00
00
ENDCHAR
STARTCHAR U+003d
ENCODING 61
SWIDTH 666 0
DWIDTH 8 0
BBX 8 8 0 -1
BITMAP
00
00
00
3e
00
3e
00
00
ENDCHAR
STARTCHAR U+003e
ENCODING 62
SWIDTH 666 0
DWIDTH 8 0
BBX 8 8 0 -1
BITMAP
00
70
38
1c
38
70
00
00
ENDCHAR
STARTCHAR U+003f
ENCODING 63
SWIDTH 666 0
DWIDTH 8 0
BBX 8 8 0 -1
BITMAP
3c
72
06
1c
1c
00
1c
00
ENDCHAR
STARTCHAR U+0040
ENCODING 64
SWIDTH 666 0
DWIDTH 8 0
BBX 8 8 0 -1
BITMAP
3c
52
52
56
50
52
3c
00
ENDCHAR
STARTCHAR U+0041
ENCODING 65
SWIDTH 666 0
DWIDTH 8 0
BBX 8 8 0 -1
BITMAP
3c
52
52
5e
52
52
52
00
ENDCHAR
STARTCHAR U+0042
ENCODING 66
SWIDTH 666 0
DWIDTH 8 0
BBX 8 8 0 -1
BITMAP
5c
52
52
5c
52
52
5c
00
ENDCHAR
STARTCHAR U+0043
ENCODING 67
SWIDTH 666 0
DWIDTH 8 0
BBX 8 8 0 -1
BITMAP
3c
52
50
50
50
52
3c
00
ENDCHAR
STARTCHAR U+0044
ENCODING 68
SWIDTH 666 0
DWIDTH 8 0
BBX 8 8 0 -1
BITMAP
7c
52
52
52
52
52
7c
00
ENDCHAR
STARTCHAR U+0045
ENCODING 69
SWIDTH 666 0
DWIDTH 8 0
BBX 8 8 0 -1
BITMAP
7e
50
5e
50
50
50
7e
00
ENDCHAR
STARTCHAR U+0046
ENCODING 70
SWIDTH 666 0
DWIDTH 8 0
BBX 8 8 0 -1
BITMAP
7e
50
5e
50
50
50
70
00
ENDCHAR
STARTCHAR U+0047
ENCODING 71
SWIDTH 666 0
DWIDTH 8 0
BBX 8 8 0 -1
BITMAP
3c
52
50
50
57
52
3c
00
ENDCHAR
STARTCHAR U+0048
ENCODING 72
SWIDTH 666 0
DWIDTH 8 0
BBX 8 8 0 -1
BITMAP
72
52
5e
52
52
52
72
00
ENDCHAR
STARTCHAR U+0049
ENCODING 73
SWIDTH 666 0
DWIDTH 8 0
BBX 8 8 0 -1
BITMAP
7e
28
28
28
28
28
7e
00
ENDCHAR
STARTCHAR U+004a
ENCODING 74
SWIDTH 666 0
DWIDTH 8 0
BBX 8 8 0 -1
BITMAP
7e
14
14
14
14
54
38
00
ENDCHAR
STARTCHAR U+004b
ENCODING 75
SWIDTH 666 0
DWIDTH 8 0
BBX 8 8 0 -1
BITMAP
71
52
54
58
54
52
71
00
ENDCHAR
STARTCHAR U+004c
ENCODING 76
SWIDTH 666 0
DWIDTH 8 0
BBX 8 8 0 -1
BITMAP
70
50
50
50
50
50
7e
00
ENDCHAR
STARTCHAR U+004d
ENCODING 77
SWIDTH 666 0
DWIDTH 8 0
BBX 8 8 0 -1
BITMAP
71
5b
55
55
51
51
71
00
ENDCHAR
STARTCHAR U+004e
ENCODING 78
SWIDTH 666 0
DWIDTH 8 0
BBX 8 8 0 -1
BITMAP
71
51
59
55
53
51
71
00
ENDCHAR
STARTCHAR U+004f
ENCODING 79
SWIDTH 666 0
DWIDTH 8 0
BBX 8 8 0 -1
BITMAP
3c
52
52
52
52
52
3c
00
ENDCHAR
STARTCHAR U+0050
ENCODING 80
SWIDTH 666 0
DWIDTH 8 0
BBX 8 8 0 -1
BITMAP
7c
52
52
52
5c
50
70
00
ENDCHAR
STARTCHAR U+0051
ENCODING 81
SWIDTH 666 0
DWIDTH 8 0
BBX 8 8 0 -1
BITMAP
3c
52
52
52
52
54
3b
00
ENDCHAR
STARTCHAR U+0052
ENCODING 82
SWIDTH 666 0
DWIDTH 8 0
BBX 8 8 0 -1
BITMAP
7c
52
52
52
5c
52
71
00
ENDCHAR
STARTCHAR U+0053
ENCODING 83
SWIDTH 666 0
DWIDTH 8 0
BBX 8 8 0 -1
BITMAP
3c
52
50
3c
02
72
3c
00
ENDCHAR
STARTCHAR U+0054
ENCODING 84
SWIDTH 666 0
DWIDTH 8 0
BBX 8 8 0 -1
BITMAP
7f
14
14
14
14
14
1c
00
ENDCHAR
STARTCHAR U+0055
ENCODING 85
SWIDTH 666 0
DWIDTH 8 0
BBX 8 8 0 -1
BITMAP
72
52
52
52
52
52
3c
00
ENDCHAR
STARTCHAR U+0056
ENCODING 86
SWIDTH 666 0
DWIDTH 8 0
BBX 8 8 0 -1
BITMAP
72
52
52
54
54
3c
1c
00
ENDCHAR
STARTCHAR U+0057
ENCODING 87
SWIDTH 666 0
DWIDTH 8 0
BBX 8 8 0 -1
BITMAP
71
51
51
51
55
55
3e
00
ENDCHAR
STARTCHAR U+0058
ENCODING 88
SWIDTH 666 0
DWIDTH 8 0
BBX 8 8 0 -1
BITMAP
51
2a
2a
14
2a
2a
51
00
ENDCHAR
STARTCHAR U+0059
ENCODING 89
SWIDTH 666 0
DWIDTH 8 0
BBX 8 8 0 -1
BITMAP
72
52
52
2c
28
28
38
00
ENDCHAR
STARTCHAR U+005a
ENCODING 90
SWIDTH 666 0
DWIDTH 8 0
BBX 8 8 0 -1
BITMAP
7e
4a
16
2c
58
52
7e
00
ENDCHAR
STARTCHAR U+005b
ENCODING 91
SWIDTH 666 0
DWIDTH 8 0
BBX 8 8 0 -1
BITMAP
3c
50
50
50
50
50
3c
00
ENDCHAR
STARTCHAR U+005c
ENCODING 92
SWIDTH 666 0
DWIDTH 8 0
BBX 8 8 0 -1
BITMAP
00
70
28
14
0a
07
00
00
ENDCHAR
STARTCHAR U+005d
ENCODING 93
SWIDTH 666 0
DWIDTH 8 0
BBX 8 8 0 -1
BITMAP
3c
0a
0a
0a
0a
0a
3c
00
ENDCHAR
STARTCHAR U+005e
ENCODING 94
SWIDTH 666 0
DWIDTH 8 0
BBX 8 8 0 -1
BITMAP
00
18
3c
5a
18
18
18
00
ENDCHAR
STARTCHAR U+005f
ENCODING 95
SWIDTH 666 0
DWIDTH 8 0
BBX 8 8 0 -1
BITMAP
00
00
00
00
00
00
00
ff
ENDCHAR
STARTCHAR U+0060
ENCODING 96
SWIDTH 666 0
DWIDTH 8 0
BBX 8 8 0 -1
BITMAP
00
00
00
00
00
00
00
00
ENDCHAR
STARTCHAR U+0061
ENCODING 97
SWIDTH 666 0
DWIDTH 8 0
BBX 8 8 0 -1
BITMAP
00
3c
0a
3a
4a
4a
3e
00
ENDCHAR
STARTCHAR U+0062
ENCODING 98
SWIDTH 666 0
DWIDTH 8 0
BBX 8 8 0 -1
BITMAP
70
50
5c
52
52
52
7c
00
ENDCHAR
STARTCHAR U+0063
ENCODING 99
SWIDTH 666 0
DWIDTH 8 0
BBX 8 8 0 -1
BITMAP
00
3c
52
50
50
52
3c
00
ENDCHAR
STARTCHAR U+0064
ENCODING 100
SWIDTH 666 0
DWIDTH 8 0
BBX 8 8 0 -1
BITMAP
0e
0a
3a
4a
4a
4a
3e
00
ENDCHAR
STARTCHAR U+0065
ENCODING 101
SWIDTH 666 0
DWIDTH 8 0
BBX 8 8 0 -1
BITMAP
00
3c
52
52
5c
50
3e
00
ENDCHAR
STARTCHAR U+0066
ENCODING 102
SWIDTH 666 0
DWIDTH 8 0
BBX 8 8 0 -1
BITMAP
3c
52
50
dc
50
50
70
00
ENDCHAR
STARTCHAR U+0067
ENCODING 103
SWIDTH 666 0
DWIDTH 8 0
BBX 8 8 0 -1
BITMAP
00
3e
4a
4a
3a
0a
6a
3c
ENDCHAR
STARTCHAR U+0068
ENCODING 104
SWIDTH 666 0
DWIDTH 8 0
BBX 8 8 0 -1
BITMAP
70
50
56
59
51
51
71
00
ENDCHAR
STARTCHAR U+0069
ENCODING 105
SWIDTH 666 0
DWIDTH 8 0
BBX 8 8 0 -1
BITMAP
38
00
78
28
28
28
7c
00
ENDCHAR
STARTCHAR U+006a
ENCODING 106
SWIDTH 666 0
DWIDTH 8 0
BBX 8 8 0 -1
BITMAP
1c
00
3e
14
14
14
54
38
ENDCHAR
STARTCHAR U+006b
ENCODING 107
SWIDTH 666 0
DWIDTH 8 0
BBX 8 8 0 -1
BITMAP
70
52
54
5c
5e
57
73
00
ENDCHAR
STARTCHAR U+006c
ENCODING 108
SWIDTH 666 0
DWIDTH 8 0
BBX 8 8 0 -1
BITMAP
78
28
28
28
28
28
7c
00
ENDCHAR
STARTCHAR U+006d
ENCODING 109
SWIDTH 666 0
DWIDTH 8 0
BBX 8 8 0 -1
BITMAP
00
7a
55
55
51
51
71
00
ENDCHAR
STARTCHAR U+006e
ENCODING 110
SWIDTH 666 0
DWIDTH 8 0
BBX 8 8 0 -1
BITMAP
00
76
59
51
51
51
71
00
ENDCHAR
STARTCHAR U+006f
ENCODING 111
SWIDTH 666 0
DWIDTH 8 0
BBX 8 8 0 -1
BITMAP
00
3c
52
52
52
52
3c
00
ENDCHAR
STARTCHAR U+0070
ENCODING 112
SWIDTH 666 0
DWIDTH 8 0
BBX 8 8 0 -1
BITMAP
00
7c
52
52
52
5c
50
70
ENDCHAR
STARTCHAR U+0071
ENCODING 113
SWIDTH 666 0
DWIDTH 8 0
BBX 8 8 0 -1
BITMAP
00
3e
4a
4a
4a
3a
0a
0f
ENDCHAR
STARTCHAR U+0072
ENCODING 114
SWIDTH 666 0
DWIDTH 8 0
BBX 8 8 0 -1
BITMAP
00
76
58
50
50
50
70
00
ENDCHAR
STARTCHAR U+0073
ENCODING 115
SWIDTH 666 0
DWIDTH 8 0
BBX 8 8 0 -1
BITMAP
00
3c
50
3c
0a
4a
3c
00
ENDCHAR
STARTCHAR U+0074
ENCODING 116
SWIDTH 666 0
DWIDTH 8 0
BBX 8 8 0 -1
BITMAP
70
50
dc
50
50
52
3c
00
ENDCHAR
STARTCHAR U+0075
ENCODING 117
SWIDTH 666 0
DWIDTH 8 0
BBX 8 8 0 -1
BITMAP
00
72
52
52
52
52
3c
00
ENDCHAR
STARTCHAR U+0076
ENCODING 118
SWIDTH 666 0
DWIDTH 8 0
BBX 8 8 0 -1
BITMAP
00
72
52
54
54
3c
1c
00
ENDCHAR
STARTCHAR U+0077
ENCODING 119
SWIDTH 666 0
DWIDTH 8 0
BBX 8 8 0 -1
BITMAP
00
71
51
51
55
55
3e
00
ENDCHAR
STARTCHAR U+0078
ENCODING 120
SWIDTH 666 0
DWIDTH 8 0
BBX 8 8 0 -1
BITMAP
00
72
2a
14
14
3c
4f
00
ENDCHAR
STARTCHAR U+0079
ENCODING 121
SWIDTH 666 0
DWIDTH 8 0
BBX 8 8 0 -1
BITMAP
00
76
56
56
3e
06
66
3c
ENDCHAR
STARTCHAR U+007a
ENCODING 122
SWIDTH 666 0
DWIDTH 8 0
BBX 8 8 0 -1
BITMAP
00
7e
4a
14
28
52
7e
00
ENDCHAR
STARTCHAR U+007b
ENCODING 123
SWIDTH 666 0
DWIDTH 8 0
BBX 8 8 0 -1
BITMAP
3c
70
70
e0
70
70
3c
00
ENDCHAR
STARTCHAR U+007c
ENCODING 124
SWIDTH 666 0
DWIDTH 8 0
BBX 8 8 0 -1
BITMAP
1c
1c
1c
1c
1c
1c
1c
00
ENDCHAR
STARTCHAR U+007d
ENCODING 125
SWIDTH 666 0
DWIDTH 8 0
BBX 8 8 0 -1
BITMAP
3c
0e
0e
07
0e
0e
3c
00
ENDCHAR
STARTCHAR U+007e
ENCODING 126
SWIDTH 666 0
DWIDTH 8 0
BBX 8 8 0 -1
BITMAP
00
28
50
00
00
00
00
00
ENDCHAR
STARTCHAR U+007f
ENCODING 127
SWIDTH 666 0
DWIDTH 8 0
BBX 8 8 0 -1
BITMAP
00
00
00
00
00
00
00
00
ENDCHAR
STARTCHAR U+0080
ENCODING 128
SWIDTH 666 0
DWIDTH 8 0
BBX 8 8 0 -1
BITMAP
00
00
00
00
00
00
00
00
ENDCHAR
STARTCHAR U+0081
ENCODING 129
SWIDTH 666 0
DWIDTH 8 0
BBX 8 8 0 -1
BITMAP
00
00
00
00
00
00
00
00
ENDCHAR
STARTCHAR U+0082
ENCODING 130
SWIDTH 666 0
DWIDTH 8 0
BBX 8 8 0 -1
BITMAP
00
00
00
00
00
00
00
00
ENDCHAR
STARTCHAR U+0083
ENCODING 131
SWIDTH 666 0
DWIDTH 8 0
BBX 8 8 0 -1
BITMAP
00
00
00
00
00
00
00
00
ENDCHAR
STARTCHAR U+0084
ENCODING 132
SWIDTH 666 0
DWIDTH 8 0
BBX 8 8 0 -1
BITMAP
00
00
00
00
00
00
00
00
ENDCHAR
STARTCHAR U+0085
ENCODING 133
SWIDTH 666 0
DWIDTH 8 0
BBX 8 8 0 -1
BITMAP
00
00
00
00
00
00
00
00
ENDCHAR
STARTCHAR U+0086
ENCODING 134
SWIDTH 666 0
DWIDTH 8 0
BBX 8 8 0 -1
BITMAP
00
00
00
00
00
00
00
00
ENDCHAR
STARTCHAR U+0087
ENCODING 135
SWIDTH 666 0
DWIDTH 8 0
BBX 8 8 0 -1
BITMAP
00
00
00
00
00
00
00
00
ENDCHAR
STARTCHAR U+0088
ENCODING 136
SWIDTH 666 0
DWIDTH 8 0
BBX 8 8 0 -1
BITMAP
00
00
00
00
00
00
00
00
ENDCHAR
STARTCHAR U+0089
ENCODING 137
SWIDTH 666 0
DWIDTH 8 0
BBX 8 8 0 -1
BITMAP
00
00
00
00
00
00
00
00
ENDCHAR
STARTCHAR U+008a
ENCODING 138
SWIDTH 666 0
DWIDTH 8 0
BBX 8 8 0 -1
BITMAP
00
00
00
00
00
00
00
00
ENDCHAR
STARTCHAR U+008b
ENCODING 139
SWIDTH 666 0
DWIDTH 8 0
BBX 8 8 0 -1
BITMAP
00
00
00
00
00
00
00
00
ENDCHAR
STARTCHAR U+008c
ENCODING 140
SWIDTH 666 0
DWIDTH 8 0
BBX 8 8 0 -1
BITMAP
00
00
00
00
00
00
00
00
ENDCHAR
STARTCHAR U+008d
ENCODING 141
SWIDTH 666 0
DWIDTH 8 0
BBX 8 8 0 -1
BITMAP
00
00
00
00
00
00
00
00
ENDCHAR
STARTCHAR U+008e
ENCODING 142
SWIDTH 666 0
DWIDTH 8 0
BBX 8 8 0 -1
BITMAP
00
00
00
00
00
00
00
00
ENDCHAR
STARTCHAR U+008f
ENCODING 143
SWIDTH 666 0
DWIDTH 8 0
BBX 8 8 0 -1
BITMAP
00
00
00
00
00
00
00
00
ENDCHAR
STARTCHAR U+0090
ENCODING 144
SWIDTH 666 0
DWIDTH 8 0
BBX 8 8 0 -1
BITMAP
00
00
00
00
00
00
00
00
ENDCHAR
STARTCHAR U+0091
ENCODING 145
SWIDTH 666 0
DWIDTH 8 0
BBX 8 8 0 -1
BITMAP
00
00
00
00
00
00
00
00
ENDCHAR
STARTCHAR U+0092
ENCODING 146
SWIDTH 666 0
DWIDTH 8 0
BBX 8 8 0 -1
BITMAP
00
00
00
00
00
00
00
00
ENDCHAR
STARTCHAR U+0093
ENCODING 147
SWIDTH 666 0
DWIDTH 8 0
BBX 8 8 0 -1
BITMAP
00
00
00
00
00
00
00
00
ENDCHAR
STARTCHAR U+0094
ENCODING 148
SWIDTH 666 0
DWIDTH 8 0
BBX 8 8 0 -1
BITMAP
00
00
00
00
00
00
00
00
ENDCHAR
STARTCHAR U+0095
ENCODING 149
SWIDTH 666 0
DWIDTH 8 0
BBX 8 8 0 -1
BITMAP
00
00
00
00
00
00
00
00
ENDCHAR
STARTCHAR U+0096
ENCODING 150
SWIDTH 666 0
DWIDTH 8 0
BBX 8 8 0 -1
BITMAP
00
00
00
00
00
00
00
00
ENDCHAR
STARTCHAR U+0097
ENCODING 151
SWIDTH 666 0
DWIDTH 8 0
BBX 8 8 0 -1
BITMAP
00
00
00
00
00
00
00
00
ENDCHAR
STARTCHAR U+0098
ENCODING 152
SWIDTH 666 0
DWIDTH 8 0
BBX 8 8 0 -1
BITMAP
00
00
00
00
00
00
00
00
ENDCHAR
STARTCHAR U+0099
ENCODING 153
SWIDTH 666 0
DWIDTH 8 0
BBX 8 8 0 -1
BITMAP
00
00
00
00
00
00
00
00
ENDCHAR
STARTCHAR U+009a
ENCODING 154
SWIDTH 666 0
DWIDTH 8 0
BBX 8 8 0 -1
BITMAP
00
00
00
00
00
00
00
00
ENDCHAR
STARTCHAR U+009b
ENCODING 155
SWIDTH 666 0
DWIDTH 8 0
BBX 8 8 0 -1
BITMAP
00
00
00
00
00
00
00
00
ENDCHAR
STARTCHAR U+009c
ENCODING 156
SWIDTH 666 0
DWIDTH 8 0
BBX 8 8 0 -1
BITMAP
00
00
00
00
00
00
00
00
ENDCHAR
STARTCHAR U+009d
ENCODING 157
SWIDTH 666 0
DWIDTH 8 0
BBX 8 8 0 -1
BITMAP
00
00
00
00
00
00
00
00
ENDCHAR
STARTCHAR U+009e
ENCODING 158
SWIDTH 666 0
DWIDTH 8 0
BBX 8 8 0 -1
BITMAP
00
00
00
00
00
00
00
00
ENDCHAR
STARTCHAR U+009f
ENCODING 159
SWIDTH 666 0
DWIDTH 8 0
BBX 8 8 0 -1
BITMAP
00
00
00
00
00
00
00
00
ENDCHAR
STARTCHAR U+00a0
ENCODING 160
SWIDTH 666 0
DWIDTH 8 0
BBX 8 8 0 -1
BITMAP
00
00
00
00
00
00
00
00
ENDCHAR
STARTCHAR U+00a1
ENCODING 161
SWIDTH 666 0
DWIDTH 8 0
BBX 8 8 0 -1
BITMAP
00
00
00
00
00
00
00
00
ENDCHAR
STARTCHAR U+00a2
ENCODING 162
SWIDTH 666 0
DWIDTH 8 0
BBX 8 8 0 -1
BITMAP
00
00
00
00
00
00
00
00
ENDCHAR
STARTCHAR U+00a3
ENCODING 163
SWIDTH 666 0
DWIDTH 8 0
BBX 8 8 0 -1
BITMAP
3c
52
50
de
50
51
fe
00
ENDCHAR
STARTCHAR U+00a4
ENCODING 164
SWIDTH 666 0
DWIDTH 8 0
BBX 8 8 0 -1
BITMAP
00
00
00
00
00
00
00
00
ENDCHAR
STARTCHAR U+00a5
ENCODING 165
SWIDTH 666 0
DWIDTH 8 0
BBX 8 8 0 -1
BITMAP
00
00
00
00
00
00
00
00
ENDCHAR
STARTCHAR U+00a6
ENCODING 166
SWIDTH 666 0
DWIDTH 8 0
BBX 8 8 0 -1
BITMAP
00
00
00
00
00
00
00
00
ENDCHAR
STARTCHAR U+00a7
ENCODING 167
SWIDTH 666 0
DWIDTH 8 0
BBX 8 8 0 -1
BITMAP
00
00
00
00
00
00
00
00
ENDCHAR
STARTCHAR U+00a8
ENCODING 168
SWIDTH 666 0
DWIDTH 8 0
BBX 8 8 0 -1
BITMAP
00
00
00
00
00
00
00
00
ENDCHAR
STARTCHAR U+00a9
ENCODING 169
SWIDTH 666 0
DWIDTH 8 0
BBX 8 8 0 -1
BITMAP
3c
42
9d
b1
b1
9d
42
00
ENDCHAR
STARTCHAR U+00aa
ENCODING 170
SWIDTH 666 0
DWIDTH 8 0
BBX 8 8 0 -1
BITMAP
00
00
00
00
00
00
00
00
ENDCHAR
STARTCHAR U+00ab
ENCODING 171
SWIDTH 666 0
DWIDTH 8 0
BBX 8 8 0 -1
BITMAP
00
00
00
00
00
00
00
00
ENDCHAR
STARTCHAR U+00ac
ENCODING 172
SWIDTH 666 0
DWIDTH 8 0
BBX 8 8 0 -1
BITMAP
00
00
00
00
00
00
00
00
ENDCHAR
STARTCHAR U+00ad
ENCODING 173
SWIDTH 666 0
DWIDTH 8 0
BBX 8 8 0 -1
BITMAP
00
00
00
00
00
00
00
00
ENDCHAR
STARTCHAR U+00ae
ENCODING 174
SWIDTH 666 0
DWIDTH 8 0
BBX 8 8 0 -1
BITMAP
00
00
00
00
00
00
00
00
ENDCHAR
STARTCHAR U+00af
ENCODING 175
SWIDTH 666 0
DWIDTH 8 0
BBX 8 8 0 -1
BITMAP
00
00
00
00
00
00
00
00
ENDCHAR
STARTCHAR U+00b0
ENCODING 176
SWIDTH 666 0
DWIDTH 8 0
BBX 8 8 0 -1
BITMAP
00
00
00
00
00
00
00
00
ENDCHAR
STARTCHAR U+00b1
ENCODING 177
SWIDTH 666 0
DWIDTH 8 0
BBX 8 8 0 -1
BITMAP
00
00
00
00
00
00
00
00
ENDCHAR
STARTCHAR U+00b2
ENCODING 178
SWIDTH 666 0
DWIDTH 8 0
BBX 8 8 0 -1
BITMAP
00
00
00
00
00
00
00
00
ENDCHAR
STARTCHAR U+00b3
ENCODING 179
SWIDTH 666 0
DWIDTH 8 0
BBX 8 8 0 -1
BITMAP
00
00
00
00
00
00
00
00
ENDCHAR
STARTCHAR U+00b4
ENCODING 180
SWIDTH 666 0
DWIDTH 8 0
BBX 8 8 0 -1
BITMAP
00
00
00
00
00
00
00
00
ENDCHAR
STARTCHAR U+00b5
ENCODING 181
SWIDTH 666 0
DWIDTH 8 0
BBX 8 8 0 -1
BITMAP
00
00
00
00
00
00
00
00
ENDCHAR
STARTCHAR U+00b6
ENCODING 182
SWIDTH 666 0
DWIDTH 8 0
BBX 8 8 0 -1
BITMAP
00
00
00
00
00
00
00
00
ENDCHAR
STARTCHAR U+00b7
ENCODING 183
SWIDTH 666 0
DWIDTH 8 0
BBX 8 8 0 -1
BITMAP
00
00
00
00
00
00
00
00
ENDCHAR
STARTCHAR U+00b8
ENCODING 184
SWIDTH 666 0
DWIDTH 8 0
BBX 8 8 0 -1
BITMAP
00
00
00
00
00
00
00
00
ENDCHAR
STARTCHAR U+00b9
ENCODING 185
SWIDTH 666 0
DWIDTH 8 0
BBX 8 8 0 -1
BITMAP
00
00
00
00
00
00
00
00
ENDCHAR
STARTCHAR U+00ba
ENCODING 186
SWIDTH 666 0
DWIDTH 8 0
BBX 8 8 0 -1
BITMAP
00
00
00
00
00
00
00
00
ENDCHAR
STARTCHAR U+00bb
ENCODING 187
SWIDTH 666 0
DWIDTH 8 0
BBX 8 8 0 -1
BITMAP
00
00
00
00
00
00
00
00
ENDCHAR
STARTCHAR U+00bc
ENCODING 188
SWIDTH 666 0
DWIDTH 8 0
BBX 8 8 0 -1
BITMAP
00
00
00
00
00
00
00
00
ENDCHAR
STARTCHAR U+00bd
ENCODING 189
SWIDTH 666 0
DWIDTH 8 0
BBX 8 8 0 -1
BITMAP
00
00
00
00
00
00
00
00
ENDCHAR
STARTCHAR U+00be
ENCODING 190
SWIDTH 666 0
DWIDTH 8 0
BBX 8 8 0 -1
BITMAP
00
00
00
00
00
00
00
00
ENDCHAR
STARTCHAR U+00bf
ENCODING 191
SWIDTH 666 0
DWIDTH 8 0
BBX 8 8 0 -1
BITMAP
00
00
00
00
00
00
00
00
ENDCHAR
STARTCHAR U+00c0
ENCODING 192
SWIDTH 666 0
DWIDTH 8 0
BBX 8 8 0 -1
BITMAP
00
00
00
00
00
00
00
00
ENDCHAR
STARTCHAR U+00c1
ENCODING 193
SWIDTH 666 0
DWIDTH 8 0
BBX 8 8 0 -1
BITMAP
00
00
00
00
00
00
00
00
ENDCHAR
STARTCHAR U+00c2
ENCODING 194
SWIDTH 666 0
DWIDTH 8 0
BBX 8 8 0 -1
BITMAP
00
00
00
00
00
00
00
00
ENDCHAR
STARTCHAR U+00c3
ENCODING 195
SWIDTH 666 0
DWIDTH 8 0
BBX 8 8 0 -1
BITMAP
00
00
00
00
00
00
00
00
ENDCHAR
STARTCHAR U+00c4
ENCODING 196
SWIDTH 666 0
DWIDTH 8 0
BBX 8 8 0 -1
BITMAP
00
00
00
00
00
00
00
00
ENDCHAR
STARTCHAR U+00c5
ENCODING 197
SWIDTH 666 0
DWIDTH 8 0
BBX 8 8 0 -1
BITMAP
00
00
00
00
00
00
00
00
ENDCHAR
STARTCHAR U+00c6
ENCODING 198
SWIDTH 666 0
DWIDTH 8 0
BBX 8 8 0 -1
BITMAP
00
00
00
00
00
00
00
00
ENDCHAR
STARTCHAR U+00c7
ENCODING 199
SWIDTH 666 0
DWIDTH 8 0
BBX 8 8 0 -1
BITMAP
00
00
00
00
00
00
00
00
ENDCHAR
STARTCHAR U+00c8
ENCODING 200
SWIDTH 666 0
DWIDTH 8 0
BBX 8 8 0 -1
BITMAP
00
00
00
00
00
00
00
00
ENDCHAR
STARTCHAR U+00c9
ENCODING 201
SWIDTH 666 0
DWIDTH 8 0
BBX 8 8 0 -1
BITMAP
00
00
00
00
00
00
00
00
ENDCHAR
STARTCHAR U+00ca
ENCODING 202
SWIDTH 666 0
DWIDTH 8 0
BBX 8 8 0 -1
BITMAP
00
00
00
00
00
00
00
00
ENDCHAR
STARTCHAR U+00cb
ENCODING 203
SWIDTH 666 0
DWIDTH 8 0
BBX 8 8 0 -1
BITMAP
00
00
00
00
00
00
00
00
ENDCHAR
STARTCHAR U+00cc
ENCODING 204
SWIDTH 666 0
DWIDTH 8 0
BBX 8 8 0 -1
BITMAP
00
00
00
00
00
00
00
00
ENDCHAR
STARTCHAR U+00cd
ENCODING 205
SWIDTH 666 0
DWIDTH 8 0
BBX 8 8 0 -1
BITMAP
00
00
00
00
00
00
00
00
ENDCHAR
STARTCHAR U+00ce
ENCODING 206
SWIDTH 666 0
DWIDTH 8 0
BBX 8 8 0 -1
BITMAP
00
00
00
00
00
00
00
00
ENDCHAR
STARTCHAR U+00cf
ENCODING 207
SWIDTH 666 0
DWIDTH 8 0
BBX 8 8 0 -1
BITMAP
00
00
00
00
00
00
00
00
ENDCHAR
STARTCHAR U+00d0
ENCODING 208
SWIDTH 666 0
DWIDTH 8 0
BBX 8 8 0 -1
BITMAP
00
00
00
00
00
00
00
00
ENDCHAR
STARTCHAR U+00d1
ENCODING 209
SWIDTH 666 0
DWIDTH 8 0
BBX 8 8 0 -1
BITMAP
00
00
00
00
00
00
00
00
ENDCHAR
STARTCHAR U+00d2
ENCODING 210
SWIDTH 666 0
DWIDTH 8 0
BBX 8 8 0 -1
BITMAP
00
00
00
00
00
00
00
00
ENDCHAR
STARTCHAR U+00d3
ENCODING 211
SWIDTH 666 0
DWIDTH 8 0
BBX 8 8 0 -1
BITMAP
00
00
00
00
00
00
00
00
ENDCHAR
STARTCHAR U+00d4
ENCODING 212
SWIDTH 666 0
DWIDTH 8 0
BBX 8 8 0 -1
BITMAP
00
00
00
00
00
00
00
00
ENDCHAR
STARTCHAR U+00d5
ENCODING 213
SWIDTH 666 0
DWIDTH 8 0
BBX 8 8 0 -1
BITMAP
00
00
00
00
00
00
00
00
ENDCHAR
STARTCHAR U+00d6
ENCODING 214
SWIDTH 666 0
DWIDTH 8 0
BBX 8 8 0 -1
BITMAP
00
00
00
00
00
00
00
00
ENDCHAR
STARTCHAR U+00d7
ENCODING 215
SWIDTH 666 0
DWIDTH 8 0
BBX 8 8 0 -1
BITMAP
00
00
00
00
00
00
00
00
ENDCHAR
STARTCHAR U+00d8
ENCODING 216
SWIDTH 666 0
DWIDTH 8 0
BBX 8 8 0 -1
BITMAP
00
00
00
00
00
00
00
00
ENDCHAR
STARTCHAR U+00d9
ENCODING 217
SWIDTH 666 0
DWIDTH 8 0
BBX 8 8 0 -1
BITMAP
00
00
00
00
00
00
00
00
ENDCHAR
STARTCHAR U+00da
ENCODING 218
SWIDTH 666 0
DWIDTH 8 0
BBX 8 8 0 -1
BITMAP
00
00
00
00
00
00
00
00
ENDCHAR
STARTCHAR U+00db
ENCODING 219
SWIDTH 666 0
DWIDTH 8 0
BBX 8 8 0 -1
BITMAP
00
00
00
00
00
00
00
00
ENDCHAR
STARTCHAR U+00dc
ENCODING 220
SWIDTH 666 0
DWIDTH 8 0
BBX 8 8 0 -1
BITMAP
00
00
00
00
00
00
00
00
ENDCHAR
STARTCHAR U+00dd
ENCODING 221
SWIDTH 666 0
DWIDTH 8 0
BBX 8 8 0 -1
BITMAP
00
00
00
00
00
00
00
00
ENDCHAR
STARTCHAR U+00de
ENCODING 222
SWIDTH 666 0
DWIDTH 8 0
BBX 8 8 0 -1
BITMAP
00
00
00
00
00
00
00
00
ENDCHAR
STARTCHAR U+00df
ENCODING 223
SWIDTH 666 0
DWIDTH 8 0
BBX 8 8 0 -1
BITMAP
00
00
00
00
00
00
00
00
ENDCHAR
STARTCHAR U+00e0
ENCODING 224
SWIDTH 666 0
DWIDTH 8 0
BBX 8 8 0 -1
BITMAP
00
00
00
00
00
00
00
00
ENDCHAR
STARTCHAR U+00e1
ENCODING 225
SWIDTH 666 0
DWIDTH 8 0
BBX 8 8 0 -1
BITMAP
00
00
00
00
00
00
00
00
ENDCHAR
STARTCHAR U+00e2
ENCODING 226
SWIDTH 666 0
DWIDTH 8 0
BBX 8 8 0 -1
BITMAP
00
00
00
00
00
00
00
00
ENDCHAR
STARTCHAR U+00e3
ENCODING 227
SWIDTH 666 0
DWIDTH 8 0
BBX 8 8 0 -1
BITMAP
00
00
00
00
00
00
00
00
ENDCHAR
STARTCHAR U+00e4
ENCODING 228
SWIDTH 666 0
DWIDTH 8 0
BBX 8 8 0 -1
BITMAP
00
00
00
00
00
00
00
00
ENDCHAR
STARTCHAR U+00e5
ENCODING 229
SWIDTH 666 0
DWIDTH 8 0
BBX 8 8 0 -1
BITMAP
00
00
00
00
00
00
00
00
ENDCHAR
STARTCHAR U+00e6
ENCODING 230
SWIDTH 666 0
DWIDTH 8 0
BBX 8 8 0 -1
BITMAP
00
00
00
00
00
00
00
00
ENDCHAR
STARTCHAR U+00e7
ENCODING 231
SWIDTH 666 0
DWIDTH 8 0
BBX 8 8 0 -1
BITMAP
00
00
00
00
00
00
00
00
ENDCHAR
STARTCHAR U+00e8
ENCODING 232
SWIDTH 666 0
DWIDTH 8 0
BBX 8 8 0 -1
BITMAP
00
00
00
00
00
00
00
00
ENDCHAR
STARTCHAR U+00e9
ENCODING 233
SWIDTH 666 0
DWIDTH 8 0
BBX 8 8 0 -1
BITMAP
00
00
00
00
00
00
00
00
ENDCHAR
STARTCHAR U+00ea
ENCODING 234
SWIDTH 666 0
DWIDTH 8 0
BBX 8 8 0 -1
BITMAP
00
00
00
00
00
00
00
00
ENDCHAR
STARTCHAR U+00eb
ENCODING 235
SWIDTH 666 0
DWIDTH 8 0
BBX 8 8 0 -1
BITMAP
00
00
00
00
00
00
00
00
ENDCHAR
STARTCHAR U+00ec
ENCODING 236
SWIDTH 666 0
DWIDTH 8 0
BBX 8 8 0 -1
BITMAP
00
00
00
00
00
00
00
00
ENDCHAR
STARTCHAR U+00ed
ENCODING 237
SWIDTH 666 0
DWIDTH 8 0
BBX 8 8 0 -1
BITMAP
00
00
00
00
00
00
00
00
ENDCHAR
STARTCHAR U+00ee
ENCODING 238
SWIDTH 666 0
DWIDTH 8 0
BBX 8 8 0 -1
BITMAP
00
00
00
00
00
00
00
00
ENDCHAR
STARTCHAR U+00ef
ENCODING 239
SWIDTH 666 0
DWIDTH 8 0
BBX 8 8 0 -1
BITMAP
00
00
00
00
00
00
00
00
ENDCHAR
STARTCHAR U+00f0
ENCODING 240
SWIDTH 666 0
DWIDTH 8 0
BBX 8 8 0 -1
BITMAP
00
00
00
00
00
00
00
00
ENDCHAR
STARTCHAR U+00f1
ENCODING 241
SWIDTH 666 0
DWIDTH 8 0
BBX 8 8 0 -1
BITMAP
00
00
00
00
00
00
00
00
ENDCHAR
STARTCHAR U+00f2
ENCODING 242
SWIDTH 666 0
DWIDTH 8 0
BBX 8 8 0 -1
BITMAP
00
00
00
00
00
00
00
00
ENDCHAR
STARTCHAR U+00f3
ENCODING 243
SWIDTH 666 0
DWIDTH 8 0
BBX 8 8 0 -1
BITMAP
00
00
00
00
00
00
00
00
ENDCHAR
STARTCHAR U+00f4
ENCODING 244
SWIDTH 666 0
DWIDTH 8 0
BBX 8 8 0 -1
BITMAP
00
00
00
00
00
00
00
00
ENDCHAR
STARTCHAR U+00f5
ENCODING 245
SWIDTH 666 0
DWIDTH 8 0
BBX 8 8 0 -1
BITMAP
00
00
00
00
00
00
00
00
ENDCHAR
STARTCHAR U+00f6
ENCODING 246
SWIDTH 666 0
DWIDTH 8 0
BBX 8 8 0 -1
BITMAP
00
00
00
00
00
00
00
00
ENDCHAR
STARTCHAR U+00f7
ENCODING 247
SWIDTH 666 0
DWIDTH 8 0
BBX 8 8 0 -1
BITMAP
00
00
00
00
00
00
00
00
ENDCHAR
STARTCHAR U+00f8
ENCODING 248
SWIDTH 666 0
DWIDTH 8 0
BBX 8 8 0 -1
BITMAP
00
00
00
00
00
00
00
00
ENDCHAR
STARTCHAR U+00f9
ENCODING 249
SWIDTH 666 0
DWIDTH 8 0
BBX 8 8 0 -1
BITMAP
00
00
00
00
00
00
00
00
ENDCHAR
STARTCHAR U+00fa
ENCODING 250
SWIDTH 666 0
DWIDTH 8 0
BBX 8 8 0 -1
BITMAP
00
00
00
00
00
00
00
00
ENDCHAR
STARTCHAR U+00fb
ENCODING 251
SWIDTH 666 0
DWIDTH 8 0
BBX 8 8 0 -1
BITMAP
00
00
00
00
00
00
00
00
ENDCHAR
STARTCHAR U+00fc
ENCODING 252
SWIDTH 666 0
DWIDTH 8 0
BBX 8 8 0 -1
BITMAP
00
00
00
00
00
00
00
00
ENDCHAR
STARTCHAR U+00fd
ENCODING 253
SWIDTH 666 0
DWIDTH 8 0
BBX 8 8 0 -1
BITMAP
00
00
00
00
00
00
00
00
ENDCHAR
STARTCHAR U+00fe
ENCODING 254
SWIDTH 666 0
DWIDTH 8 0
BBX 8 8 0 -1
BITMAP
00
00
00
00
00
00
00
00
ENDCHAR
STARTCHAR U+00ff
ENCODING 255
SWIDTH 666 0
DWIDTH 8 0
BBX 8 8 0 -1
BITMAP
00
00
00
00
00
00
00
00
ENDCHAR
STARTCHAR U+0100
ENCODING 256
SWIDTH 666 0
DWIDTH 8 0
BBX 8 8 0 -1
BITMAP
00
00
00
00
00
00
00
00
ENDCHAR
STARTCHAR U+0101
ENCODING 257
SWIDTH 666 0
DWIDTH 8 0
BBX 8 8 0 -1
BITMAP
00
00
00
00
00
00
00
00
ENDCHAR
STARTCHAR U+0102
ENCODING 258
SWIDTH 666 0
DWIDTH 8 0
BBX 8 8 0 -1
BITMAP
00
00
00
00
00
00
00
00
ENDCHAR
STARTCHAR U+0103
ENCODING 259
SWIDTH 666 0
DWIDTH 8 0
BBX 8 8 0 -1
BITMAP
00
00
00
00
00
00
00
00
ENDCHAR
STARTCHAR U+0104
ENCODING 260
SWIDTH 666 0
DWIDTH 8 0
BBX 8 8 0 -1
BITMAP
00
00
00
00
00
00
00
00
ENDCHAR
STARTCHAR U+0105
ENCODING 261
SWIDTH 666 0
DWIDTH 8 0
BBX 8 8 0 -1
BITMAP
00
00
00
00
00
00
00
00
ENDCHAR
STARTCHAR U+0106
ENCODING 262
SWIDTH 666 0
DWIDTH 8 0
BBX 8 8 0 -1
BITMAP
00
00
00
00
00
00
00
00
ENDCHAR
STARTCHAR U+0107
ENCODING 263
SWIDTH 666 0
DWIDTH 8 0
BBX 8 8 0 -1
BITMAP
00
00
00
00
00
00
00
00
ENDCHAR
STARTCHAR U+0108
ENCODING 264
SWIDTH 666 0
DWIDTH 8 0
BBX 8 8 0 -1
BITMAP
00
00
00
00
00
00
00
00
ENDCHAR
STARTCHAR U+0109
ENCODING 265
SWIDTH 666 0
DWIDTH 8 0
BBX 8 8 0 -1
BITMAP
00
00
00
00
00
00
00
00
ENDCHAR
STARTCHAR U+010a
ENCODING 266
SWIDTH 666 0
DWIDTH 8 0
BBX 8 8 0 -1
BITMAP
00
00
00
00
00
00
00
00
ENDCHAR
STARTCHAR U+010b
ENCODING 267
SWIDTH 666 0
DWIDTH 8 0
BBX 8 8 0 -1
BITMAP
00
00
00
00
00
00
00
00
ENDCHAR
STARTCHAR U+010c
ENCODING 268
SWIDTH 666 0
DWIDTH 8 0
BBX 8 8 0 -1
BITMAP
00
00
00
00
00
00
00
00
ENDCHAR
STARTCHAR U+010d
ENCODING 269
SWIDTH 666 0
DWIDTH 8 0
BBX 8 8 0 -1
BITMAP
00
00
00
00
00
00
00
00
ENDCHAR
STARTCHAR U+010e
ENCODING 270
SWIDTH 666 0
DWIDTH 8 0
BBX 8 8 0 -1
BITMAP
00
00
00
00
00
00
00
00
ENDCHAR
STARTCHAR U+010f
ENCODING 271
SWIDTH 666 0
DWIDTH 8 0
BBX 8 8 0 -1
BITMAP
00
00
00
00
00
00
00
00
ENDCHAR
STARTCHAR U+0110
ENCODING 272
SWIDTH 666 0
DWIDTH 8 0
BBX 8 8 0 -1
BITMAP
00
00
00
00
00
00
00
00
ENDCHAR
STARTCHAR U+0111
ENCODING 273
SWIDTH 666 0
DWIDTH 8 0
BBX 8 8 0 -1
BITMAP
00
00
00
00
00
00
00
00
ENDCHAR
STARTCHAR U+0112
ENCODING 274
SWIDTH 666 0
DWIDTH 8 0
BBX 8 8 0 -1
BITMAP
00
00
00
00
00
00
00
00
ENDCHAR
STARTCHAR U+0113
ENCODING 275
SWIDTH 666 0
DWIDTH 8 0
BBX 8 8 0 -1
BITMAP
00
00
00
00
00
00
00
00
ENDCHAR
STARTCHAR U+0114
ENCODING 276
SWIDTH 666 0
DWIDTH 8 0
BBX 8 8 0 -1
BITMAP
00
00
00
00
00
00
00
00
ENDCHAR
STARTCHAR U+0115
ENCODING 277
SWIDTH 666 0
DWIDTH 8 0
BBX 8 8 0 -1
BITMAP
00
00
00
00
00
00
00
00
ENDCHAR
STARTCHAR U+0116
ENCODING 278
SWIDTH 666 0
DWIDTH 8 0
BBX 8 8 0 -1
BITMAP
00
00
00
00
00
00
00
00
ENDCHAR
STARTCHAR U+0117
ENCODING 279
SWIDTH 666 0
DWIDTH 8 0
BBX 8 8 0 -1
BITMAP
00
00
00
00
00
00
00
00
ENDCHAR
STARTCHAR U+0118
ENCODING 280
SWIDTH 666 0
DWIDTH 8 0
BBX 8 8 0 -1
BITMAP
00
00
00
00
00
00
00
00
ENDCHAR
STARTCHAR U+0119
ENCODING 281
SWIDTH 666 0
DWIDTH 8 0
BBX 8 8 0 -1
BITMAP
00
00
00
00
00
00
00
00
ENDCHAR
STARTCHAR U+011a
ENCODING 282
SWIDTH 666 0
DWIDTH 8 0
BBX 8 8 0 -1
BITMAP
00
00
00
00
00
00
00
00
ENDCHAR
STARTCHAR U+011b
ENCODING 283
SWIDTH 666 0
DWIDTH 8 0
BBX 8 8 0 -1
BITMAP
00
00
00
00
00
00
00
00
ENDCHAR
STARTCHAR U+011c
ENCODING 284
SWIDTH 666 0
DWIDTH 8 0
BBX 8 8 0 -1
BITMAP
00
00
00
00
00
00
00
00
ENDCHAR
STARTCHAR U+011d
ENCODING 285
SWIDTH 666 0
DWIDTH 8 0
BBX 8 8 0 -1
BITMAP
00
00
00
00
00
00
00
00
ENDCHAR
STARTCHAR U+011e
ENCODING 286
SWIDTH 666 0
DWIDTH 8 0
BBX 8 8 0 -1
BITMAP
00
00
00
00
00
00
00
00
ENDCHAR
STARTCHAR U+011f
ENCODING 287
SWIDTH 666 0
DWIDTH 8 0
BBX 8 8 0 -1
BITMAP
00
00
00
00
00
00
00
00
ENDCHAR
STARTCHAR U+0120
ENCODING 288
SWIDTH 666 0
DWIDTH 8 0
BBX 8 8 0 -1
BITMAP
00
00
00
00
00
00
00
00
ENDCHAR
STARTCHAR U+0121
ENCODING 289
SWIDTH 666 0
DWIDTH 8 0
BBX 8 8 0 -1
BITMAP
00
00
00
00
00
00
00
00
ENDCHAR
STARTCHAR U+0122
ENCODING 290
SWIDTH 666 0
DWIDTH 8 0
BBX 8 8 0 -1
BITMAP
00
00
00
00
00
00
00
00
ENDCHAR
STARTCHAR U+0123
ENCODING 291
SWIDTH 666 0
DWIDTH 8 0
BBX 8 8 0 -1
BITMAP
00
00
00
00
00
00
00
00
ENDCHAR
STARTCHAR U+0124
ENCODING 292
SWIDTH 666 0
DWIDTH 8 0
BBX 8 8 0 -1
BITMAP
00
00
00
00
00
00
00
00
ENDCHAR
STARTCHAR U+0125
ENCODING 293
SWIDTH 666 0
DWIDTH 8 0
BBX 8 8 0 -1
BITMAP
00
00
00
00
00
00
00
00
ENDCHAR
STARTCHAR U+0126
ENCODING 294
SWIDTH 666 0
DWIDTH 8 0
BBX 8 8 0 -1
BITMAP
00
00
00
00
00
00
00
00
ENDCHAR
STARTCHAR U+0127
ENCODING 295
SWIDTH 666 0
DWIDTH 8 0
BBX 8 8 0 -1
BITMAP
00
00
00
00
00
00
00
00
ENDCHAR
STARTCHAR U+0128
ENCODING 296
SWIDTH 666 0
DWIDTH 8 0
BBX 8 8 0 -1
BITMAP
00
00
00
00
00
00
00
00
ENDCHAR
STARTCHAR U+0129
ENCODING 297
SWIDTH 666 0
DWIDTH 8 0
BBX 8 8 0 -1
BITMAP
00
00
00
00
00
00
00
00
ENDCHAR
ENDFONT
